<svg width="25" height="25" viewBox="0 0 25 25" fill="none" xmlns="http://www.w3.org/2000/svg">
<path fill-rule="evenodd" clip-rule="evenodd" d="M2.01904 7.18408C2.01904 4.00844 4.59341 1.43408 7.76904 1.43408H17.769C20.9447 1.43408 23.519 4.00844 23.519 7.18408V17.1841C23.519 20.3597 20.9447 22.9341 17.769 22.9341H7.76904C4.59341 22.9341 2.01904 20.3597 2.01904 17.1841V7.18408ZM7.76904 2.93408C5.42183 2.93408 3.51904 4.83687 3.51904 7.18408V17.1841C3.51904 19.5313 5.42183 21.4341 7.76904 21.4341H17.769C20.1163 21.4341 22.019 19.5313 22.019 17.1841V7.18408C22.019 4.83687 20.1163 2.93408 17.769 2.93408H7.76904Z" fill="white"/>
<path fill-rule="evenodd" clip-rule="evenodd" d="M8.76904 17.9341C8.35483 17.9341 8.01904 17.5983 8.01904 17.1841L8.01904 14.1841C8.01904 13.7699 8.35483 13.4341 8.76904 13.4341C9.18326 13.4341 9.51904 13.7699 9.51904 14.1841L9.51904 17.1841C9.51904 17.5983 9.18326 17.9341 8.76904 17.9341Z" fill="white"/>
<path fill-rule="evenodd" clip-rule="evenodd" d="M12.769 17.9341C12.3548 17.9341 12.019 17.5983 12.019 17.1841L12.019 7.18408C12.019 6.76987 12.3548 6.43408 12.769 6.43408C13.1833 6.43408 13.519 6.76987 13.519 7.18408L13.519 17.1841C13.519 17.5983 13.1833 17.9341 12.769 17.9341Z" fill="white"/>
<path fill-rule="evenodd" clip-rule="evenodd" d="M16.769 17.9341C16.3548 17.9341 16.019 17.5983 16.019 17.1841L16.019 10.1841C16.019 9.76987 16.3548 9.43408 16.769 9.43408C17.1833 9.43408 17.519 9.76987 17.519 10.1841L17.519 17.1841C17.519 17.5983 17.1833 17.9341 16.769 17.9341Z" fill="white"/>
</svg>
