<svg width="32" height="33" viewBox="0 0 32 33" fill="none" xmlns="http://www.w3.org/2000/svg">
<path d="M14.442 8.51392H11.642C10.7583 8.51392 10.042 9.23026 10.042 10.1139V20.9339C10.042 21.8176 10.7583 22.5339 11.642 22.5339H14.442C15.3256 22.5339 16.042 21.8176 16.042 20.9339V10.1139C16.042 9.23026 15.3256 8.51392 14.442 8.51392Z" fill="#FFC0EC"/>
<path d="M22.1981 13.384H19.3981C18.5144 13.384 17.7981 14.1004 17.7981 14.984V20.934C17.7981 21.8177 18.5144 22.534 19.3981 22.534H22.1981C23.0818 22.534 23.7981 21.8177 23.7981 20.934V14.984C23.7981 14.1004 23.0818 13.384 22.1981 13.384Z" fill="#FFC0EC"/>
<path d="M25.706 24.41H8.08795V6.81997C8.08795 5.93597 7.37195 5.21997 6.48795 5.21997H6.29995C5.41595 5.21997 4.69995 5.93597 4.69995 6.81997V26.22C4.69995 27.104 5.41595 27.82 6.29995 27.82H6.48795C6.57395 27.82 6.65795 27.812 6.74195 27.798H25.706C26.59 27.798 27.306 27.082 27.306 26.198V26.01C27.306 25.126 26.59 24.41 25.706 24.41Z" fill="#886CFF"/>
</svg>
