<svg width="25" height="25" viewBox="0 0 25 25" fill="none" xmlns="http://www.w3.org/2000/svg">
<path fill-rule="evenodd" clip-rule="evenodd" d="M14.6541 3.42788C13.4823 2.76948 12.0558 2.76948 10.884 3.42788L4.84733 6.81944C4.40961 7.06537 4.40961 7.7039 4.84733 7.94982L10.8839 11.3414C12.0558 11.9998 13.4823 11.9998 14.6541 11.3414L20.6908 7.94982C21.1285 7.7039 21.1285 7.06536 20.6908 6.81944L14.6541 3.42788ZM10.1492 2.12014C11.7774 1.20539 13.7607 1.2054 15.3889 2.12014L21.4255 5.5117C22.8836 6.3309 22.8836 8.43836 21.4255 9.25756L20.3462 9.86392L20.9806 10.2071L21.4255 10.4571C22.8836 11.2763 22.8836 13.3838 21.4255 14.203L20.4552 14.7481L21.2192 15.1327C22.7524 15.9045 22.8008 18.0838 21.3049 18.9242L15.3889 22.248C13.7607 23.1628 11.7774 23.1628 10.1492 22.248L4.31948 18.9727C2.7982 18.118 2.88063 15.8904 4.46352 15.153L5.19603 14.8117L4.1126 14.203C2.65452 13.3838 2.65453 11.2763 4.11261 10.4571L4.5548 10.2087L5.17418 9.85399L4.1126 9.25756C2.65452 8.43836 2.65453 6.3309 4.11261 5.5117L10.1492 2.12014ZM6.69779 10.71L5.29227 11.5149L4.84733 11.7649C4.40961 12.0108 4.40961 12.6493 4.84733 12.8953L10.8839 16.2868C12.0558 16.9452 13.4823 16.9452 14.6541 16.2868L20.6908 12.8953C21.1285 12.6493 21.1285 12.0108 20.6908 11.7649L20.2511 11.5178L18.7998 10.7328L15.3889 12.6491C13.7607 13.5639 11.7774 13.5639 10.1492 12.6491L6.69779 10.71ZM6.80621 15.7163L5.09696 16.5126C4.62328 16.7333 4.59668 17.4079 5.0542 17.6649L10.8839 20.9403C12.0558 21.5987 13.4823 21.5987 14.6541 20.9403L20.5702 17.6165C21.0197 17.3639 21.0041 16.7038 20.5447 16.4725L18.8787 15.6339L15.3889 17.5946C13.7607 18.5093 11.7774 18.5093 10.1492 17.5946L6.80621 15.7163Z" fill="white"/>
</svg>
