<svg width="297" height="109" viewBox="0 0 297 109" fill="none" xmlns="http://www.w3.org/2000/svg">
<path d="M115.296 58.34V51.68H125.076C126.356 51.68 127.516 51.42 128.556 50.9C129.596 50.38 130.416 49.64 131.016 48.68C131.616 47.68 131.916 46.48 131.916 45.08C131.916 43.72 131.616 42.54 131.016 41.54C130.416 40.54 129.596 39.78 128.556 39.26C127.516 38.74 126.356 38.48 125.076 38.48H115.296V31.82H125.916C128.596 31.82 130.996 32.36 133.116 33.44C135.276 34.52 136.976 36.06 138.216 38.06C139.456 40.02 140.076 42.36 140.076 45.08C140.076 47.8 139.456 50.16 138.216 52.16C136.976 54.12 135.276 55.64 133.116 56.72C130.996 57.8 128.596 58.34 125.916 58.34H115.296ZM109.296 74V31.82H117.456V74H109.296ZM156.71 74.6C153.79 74.6 151.15 73.94 148.79 72.62C146.47 71.26 144.61 69.44 143.21 67.16C141.85 64.84 141.17 62.26 141.17 59.42C141.17 56.58 141.85 54.04 143.21 51.8C144.57 49.52 146.43 47.72 148.79 46.4C151.15 45.04 153.77 44.36 156.65 44.36C159.61 44.36 162.25 45.04 164.57 46.4C166.93 47.72 168.79 49.52 170.15 51.8C171.51 54.04 172.19 56.58 172.19 59.42C172.19 62.26 171.51 64.84 170.15 67.16C168.79 69.44 166.93 71.26 164.57 72.62C162.25 73.94 159.63 74.6 156.71 74.6ZM156.65 67.28C158.13 67.28 159.43 66.96 160.55 66.32C161.71 65.64 162.59 64.72 163.19 63.56C163.83 62.36 164.15 61 164.15 59.48C164.15 57.96 163.83 56.62 163.19 55.46C162.55 54.3 161.67 53.4 160.55 52.76C159.43 52.08 158.13 51.74 156.65 51.74C155.21 51.74 153.93 52.08 152.81 52.76C151.69 53.4 150.81 54.3 150.17 55.46C149.53 56.62 149.21 57.96 149.21 59.48C149.21 61 149.53 62.36 150.17 63.56C150.81 64.72 151.69 65.64 152.81 66.32C153.93 66.96 155.21 67.28 156.65 67.28ZM176.259 74V30.62H184.119V74H176.259ZM190.092 74V30.62H197.952V74H190.092ZM217.546 74.6C214.626 74.6 211.986 73.94 209.626 72.62C207.306 71.26 205.446 69.44 204.046 67.16C202.686 64.84 202.006 62.26 202.006 59.42C202.006 56.58 202.686 54.04 204.046 51.8C205.406 49.52 207.266 47.72 209.626 46.4C211.986 45.04 214.606 44.36 217.486 44.36C220.446 44.36 223.086 45.04 225.406 46.4C227.766 47.72 229.626 49.52 230.986 51.8C232.346 54.04 233.026 56.58 233.026 59.42C233.026 62.26 232.346 64.84 230.986 67.16C229.626 69.44 227.766 71.26 225.406 72.62C223.086 73.94 220.466 74.6 217.546 74.6ZM217.486 67.28C218.966 67.28 220.266 66.96 221.386 66.32C222.546 65.64 223.426 64.72 224.026 63.56C224.666 62.36 224.986 61 224.986 59.48C224.986 57.96 224.666 56.62 224.026 55.46C223.386 54.3 222.506 53.4 221.386 52.76C220.266 52.08 218.966 51.74 217.486 51.74C216.046 51.74 214.766 52.08 213.646 52.76C212.526 53.4 211.646 54.3 211.006 55.46C210.366 56.62 210.046 57.96 210.046 59.48C210.046 61 210.366 62.36 211.006 63.56C211.646 64.72 212.526 65.64 213.646 66.32C214.766 66.96 216.046 67.28 217.486 67.28ZM250.775 74.6C247.815 74.6 245.155 73.94 242.795 72.62C240.435 71.3 238.575 69.5 237.215 67.22C235.855 64.94 235.175 62.38 235.175 59.54C235.175 56.66 235.855 54.08 237.215 51.8C238.575 49.52 240.435 47.72 242.795 46.4C245.195 45.04 247.855 44.36 250.775 44.36C253.055 44.36 255.155 44.78 257.075 45.62C258.995 46.46 260.655 47.66 262.055 49.22L257.015 54.32C256.255 53.48 255.335 52.84 254.255 52.4C253.215 51.96 252.055 51.74 250.775 51.74C249.335 51.74 248.035 52.08 246.875 52.76C245.755 53.4 244.855 54.3 244.175 55.46C243.535 56.58 243.215 57.92 243.215 59.48C243.215 61 243.535 62.36 244.175 63.56C244.855 64.72 245.755 65.64 246.875 66.32C248.035 66.96 249.335 67.28 250.775 67.28C252.095 67.28 253.275 67.06 254.315 66.62C255.395 66.14 256.315 65.46 257.075 64.58L262.175 69.68C260.695 71.28 258.995 72.5 257.075 73.34C255.155 74.18 253.055 74.6 250.775 74.6ZM284.115 74L272.895 59.06L284.055 45.02H293.115L280.035 60.86L280.335 57.02L293.715 74H284.115ZM265.635 74V30.62H273.495V74H265.635Z" fill="white"/>
<g clip-path="url(#clip0_405_2179)">
<path d="M80.2483 39.6364C80.2483 29.1241 76.0724 19.0425 68.6391 11.6092C61.2058 4.17596 51.1242 0 40.612 0C30.0997 0 20.0181 4.17596 12.5848 11.6092C5.15155 19.0425 0.975586 29.1241 0.975586 39.6364C0.975586 40.1649 0.975587 40.6933 1.01787 41.2218V39.6364H40.6542V79.2727C51.1591 79.2615 61.2299 75.0806 68.6541 67.6486C76.0782 60.2165 80.2483 50.1413 80.2483 39.6364V39.6364Z" fill="#61DCDF"/>
<path d="M0.975586 42.1136V109H40.612V80.0335H40.5802C30.3425 80.0335 20.5019 76.0858 13.1194 69.0174C5.73683 61.9489 1.38509 52.3079 0.975586 42.1136Z" fill="#886CFF"/>
<path d="M0.975586 39.6364V41.2218C1.38499 51.4513 5.73556 61.1257 13.1161 68.2185C20.4967 75.3114 30.3347 79.2727 40.5697 79.2727H40.612V39.6364H0.975586Z" fill="#F9E492"/>
</g>
<defs>
<clipPath id="clip0_405_2179">
<rect width="79.2727" height="109" fill="white" transform="translate(0.975586)"/>
</clipPath>
</defs>
</svg>
