<svg width="36" height="59" viewBox="0 0 36 59" fill="none" xmlns="http://www.w3.org/2000/svg">
<path d="M17.7046 41.5084C17.5408 41.4326 17.3855 41.3395 17.2415 41.2306L9.60023 36.4096L0.213033 30.4911C0.148198 30.4494 0.0879906 30.3846 0 30.3938V30.3197C0.0833595 30.3197 0.0926262 30.2503 0.120413 30.1993L1.24576 28.2728L4.31617 22.9934C5.30105 21.2953 6.28901 19.5972 7.28006 17.8992C8.20628 16.3061 9.1325 14.713 10.0587 13.1199L13.3005 7.56259C14.449 5.58975 15.596 3.61845 16.7414 1.6487C17.0285 1.15317 17.3156 0.657647 17.6074 0.162121C17.6273 0.104444 17.6645 0.0543065 17.7139 0.0185547C17.7547 0.0936723 17.774 0.178628 17.7695 0.264005V41.0777C17.7994 41.2245 17.7764 41.377 17.7046 41.5084Z" fill="#FDE84E"/>
<path d="M17.7046 41.5084V0C17.7787 0 17.7833 0.0787269 17.8111 0.125038C18.6632 1.58537 19.5123 3.04571 20.3582 4.50604L22.4885 8.15534L24.9291 12.365C25.5496 13.4301 26.1748 14.4953 26.7815 15.5651C27.3882 16.6349 28.0643 17.7787 28.708 18.8809C29.2391 19.8071 29.7747 20.7334 30.315 21.6596L31.8433 24.29L33.177 26.6056L34.7146 29.2499L35.2888 30.2363C35.3907 30.4077 35.3953 30.4123 35.2194 30.5188L32.3805 32.2786L30.0001 33.7838L26.0822 36.2475L21.127 39.3735C20.1452 39.994 19.1634 40.6192 18.177 41.2259C18.0345 41.3431 17.8752 41.4383 17.7046 41.5084Z" fill="#F69A92"/>
<path d="M35.3399 33.5753L34.2932 35.1082C33.7792 35.8446 33.2698 36.5855 32.7603 37.3219L28.3747 43.6618C27.22 45.3228 26.07 46.9869 24.9246 48.6541L22.2385 52.535C20.8955 54.48 19.5525 56.422 18.2095 58.3609C18.073 58.5864 17.9181 58.8001 17.7464 59C17.6976 58.9058 17.6752 58.8002 17.6815 58.6943C17.6815 54.0632 17.6815 49.4322 17.6815 44.8011C17.6726 44.7553 17.6733 44.7082 17.6836 44.6627C17.694 44.6172 17.7138 44.5744 17.7417 44.5371L19.6775 43.3284L24.4198 40.346L27.6986 38.2851L33.6588 34.5386L35.2009 33.5661L35.2982 33.5105C35.3352 33.5198 35.3491 33.5383 35.3399 33.5753Z" fill="#6599D1"/>
<path d="M17.7416 44.551C17.7416 44.6158 17.7416 44.676 17.7416 44.7362V58.8147C17.7416 58.8749 17.7416 58.9351 17.7416 59C17.6554 58.9218 17.5834 58.8294 17.5286 58.7267L15.3057 55.5128L12.3093 51.1735L9.91508 47.7187L6.91876 43.3932L4.86256 40.4201L1.87551 36.0669C1.30589 35.2379 0.727005 34.4136 0.152751 33.5846C0.146247 33.5733 0.142822 33.5606 0.142822 33.5475C0.142822 33.5345 0.146247 33.5218 0.152751 33.5105C0.203693 33.5105 0.240743 33.5336 0.277792 33.5568L4.00582 35.9048L9.18799 39.1465C10.2346 39.7995 11.2766 40.4618 12.3232 41.1194L17.2276 44.199L17.7416 44.551Z" fill="#62C9D8"/>
<path d="M35.3398 33.5753L35.2981 33.5243C35.2961 33.5167 35.2961 33.5088 35.2981 33.5012C35.2981 33.5012 35.349 33.4502 35.3722 33.5012C35.3954 33.5521 35.3722 33.5567 35.349 33.5753C35.3259 33.5938 35.349 33.566 35.3398 33.5753Z" fill="#9DBAE2"/>
<path d="M4.56177 27.8097C4.61978 27.6448 4.70086 27.4889 4.80259 27.3466C6.09003 25.1268 7.37901 22.9101 8.66954 20.6964L12.8375 13.5553L15.0002 9.8504C15.0178 9.80142 15.0523 9.76035 15.0975 9.73462V21.7384C15.0975 21.794 15.0975 21.8495 15.0975 21.9051C14.9773 22.0287 14.832 22.125 14.6714 22.1876L11.1888 24.1512C9.74858 24.957 8.31294 25.7721 6.86805 26.5779C6.16875 26.9715 5.47872 27.3698 4.76554 27.7588C4.69144 27.782 4.65439 27.8422 4.56177 27.8097Z" fill="white"/>
<path d="M15.0789 24.8967C15.0789 24.9615 15.0789 25.0217 15.0789 25.0819V36.7522C15.0042 36.7437 14.9344 36.7112 14.8798 36.6596L11.7908 34.7146L5.18227 30.5466L5.11743 30.5049C5.11743 30.4077 5.21469 30.3845 5.27952 30.3521C5.98808 29.9445 6.70127 29.5463 7.41445 29.1434L10.2255 27.5642C11.2814 26.9714 12.3357 26.3771 13.3885 25.7812L14.7408 25.0263C14.8427 24.9615 14.9446 24.8689 15.0789 24.8967Z" fill="white"/>
<path d="M15.0789 24.8967C14.7593 25.0449 14.463 25.2301 14.1527 25.4015L9.79945 27.8513L5.22858 30.4262C5.18794 30.4403 5.15137 30.4642 5.12206 30.4957C4.65895 30.1993 4.16805 29.9029 3.69568 29.6019C3.54749 29.5093 3.54749 29.4954 3.63085 29.3611C3.90871 28.898 4.19121 28.3978 4.47371 27.9162C4.4907 27.8708 4.52147 27.832 4.5617 27.805L8.688 25.4895L13.2311 22.9331L15.0835 21.9004L15.0789 24.8967Z" fill="#A9D378"/>
<path d="M20.3303 21.8959C20.3303 21.8264 20.3303 21.7616 20.3303 21.6921V9.75317C20.3998 9.75317 20.409 9.79022 20.4276 9.82264L21.928 12.4068L23.2757 14.7223L24.8132 17.3667L26.4063 20.1083L27.9438 22.7526L29.2915 25.0682L30.7827 27.6338C30.8151 27.6847 30.8383 27.7449 30.866 27.7959C30.7734 27.8422 30.6993 27.7959 30.6252 27.7403L25.531 24.8598L20.5156 22.0394C20.4415 21.9931 20.3674 21.97 20.3303 21.8959Z" fill="white"/>
<path d="M30.2919 30.5004L28.9535 31.3525L26.6658 32.7974L22.081 35.6826L20.5389 36.6598C20.4814 36.7036 20.4173 36.738 20.349 36.7616C20.3313 36.7138 20.3313 36.6613 20.349 36.6134V25.0635C20.349 25.0079 20.349 24.9524 20.349 24.8968C20.4277 24.8412 20.4926 24.8968 20.5528 24.9339C21.8495 25.6748 23.1508 26.4019 24.4521 27.1336C25.8924 27.9441 27.328 28.7591 28.7729 29.5649L30.1854 30.3615C30.2225 30.3939 30.2919 30.4263 30.2919 30.5004Z" fill="white"/>
<path d="M30.2918 30.5003C30.1707 30.4059 30.0385 30.3266 29.8981 30.2641C28.941 29.7176 27.9793 29.1743 27.013 28.634L24.8132 27.4021L22.2985 25.9804L20.4692 24.9523C20.4283 24.9225 20.3805 24.9034 20.3303 24.8967C20.3303 24.8319 20.3303 24.7624 20.3303 24.6976C20.3303 23.83 20.3303 22.964 20.3303 22.0995C20.3303 22.0301 20.3303 21.9606 20.3303 21.8958L21.3816 22.4746L23.0488 23.4009L25.3134 24.679L27.2399 25.7581L29.4258 26.9899L30.6901 27.7031C30.7456 27.7309 30.8058 27.7494 30.8614 27.7726C31.1717 28.2357 31.4449 28.7637 31.732 29.2638C31.7737 29.3379 31.8802 29.4027 31.8339 29.5046C31.7876 29.6065 31.7043 29.6065 31.6302 29.6528L30.2918 30.5003Z" fill="#CE93C1"/>
<path d="M25.9573 42.5041C25.5312 43.1216 25.1036 43.7391 24.6745 44.3565C24.1372 45.1392 23.5908 45.9218 23.0489 46.7045L20.4602 50.4511C20.4324 50.4881 20.4185 50.539 20.3583 50.5483C20.3448 50.4951 20.3448 50.4394 20.3583 50.3862C20.3583 48.9784 20.3583 47.5705 20.3583 46.1627C20.3533 46.1029 20.3665 46.043 20.3963 45.9909C20.4261 45.9388 20.471 45.897 20.525 45.8709L24.693 43.2636L25.9434 42.481C25.9504 42.4869 25.9553 42.4951 25.9573 42.5041Z" fill="white"/>
<path d="M25.9572 42.5042H25.9062L25.9572 42.4671C25.9572 42.4671 26.0035 42.4301 26.0174 42.4671C26.0313 42.5042 26.0035 42.4949 25.9572 42.5042Z" fill="#B4C9E8"/>
<path d="M9.55387 42.4994L10.6144 43.157L15 45.9357C15.0384 45.9534 15.0705 45.9824 15.092 46.0188C15.1135 46.0552 15.1234 46.0973 15.1204 46.1394C15.1204 47.5982 15.1204 49.0524 15.1204 50.5112C15.1204 50.5112 15.1204 50.5621 15.1204 50.5806C15.1204 50.5992 15.051 50.5343 15.0324 50.5019L12.828 47.3204L9.79469 42.9301L9.50293 42.4994C9.50981 42.4929 9.51892 42.4893 9.5284 42.4893C9.53787 42.4893 9.54699 42.4929 9.55387 42.4994Z" fill="white"/>
<path d="M9.55392 42.4993H9.50298C9.47982 42.4993 9.43814 42.4669 9.47519 42.4437C9.51224 42.4206 9.53077 42.4669 9.55392 42.4993Z" fill="#BAE4EB"/>
</svg>
