<svg width="81" height="109" viewBox="0 0 81 109" fill="none" xmlns="http://www.w3.org/2000/svg">
<g clip-path="url(#clip0_405_2181)">
<path d="M80.2483 39.6364C80.2483 29.1241 76.0724 19.0425 68.6391 11.6092C61.2058 4.17596 51.1242 0 40.612 0C30.0997 0 20.0181 4.17596 12.5848 11.6092C5.15155 19.0425 0.975586 29.1241 0.975586 39.6364C0.975586 40.1649 0.975587 40.6933 1.01787 41.2218V39.6364H40.6542V79.2727C51.1591 79.2615 61.2299 75.0806 68.6541 67.6486C76.0782 60.2165 80.2483 50.1413 80.2483 39.6364Z" fill="#61DCDF"/>
<path d="M0.975586 42.1136V109H40.6119V80.0335H40.5802C30.3425 80.0335 20.5019 76.0858 13.1194 69.0174C5.73683 61.9489 1.38509 52.3079 0.975586 42.1136Z" fill="#886CFF"/>
<path d="M0.975586 39.6364V41.2218C1.38499 51.4513 5.73556 61.1257 13.1161 68.2185C20.4967 75.3114 30.3347 79.2727 40.5697 79.2727H40.6119V39.6364H0.975586Z" fill="#F9E492"/>
</g>
<defs>
<clipPath id="clip0_405_2181">
<rect width="79.2727" height="109" fill="white" transform="translate(0.975586)"/>
</clipPath>
</defs>
</svg>
