<svg width="25" height="25" viewBox="0 0 25 25" fill="none" xmlns="http://www.w3.org/2000/svg">
<path fill-rule="evenodd" clip-rule="evenodd" d="M2.01904 7.18408C2.01904 4.00844 4.59341 1.43408 7.76904 1.43408H17.769C20.9447 1.43408 23.519 4.00844 23.519 7.18408V17.1841C23.519 20.3597 20.9447 22.9341 17.769 22.9341H7.76904C4.59341 22.9341 2.01904 20.3597 2.01904 17.1841V7.18408ZM7.76904 2.93408C5.42183 2.93408 3.51904 4.83687 3.51904 7.18408V17.1841C3.51904 19.5313 5.42183 21.4341 7.76904 21.4341H17.769C20.1163 21.4341 22.019 19.5313 22.019 17.1841V7.18408C22.019 4.83687 20.1163 2.93408 17.769 2.93408H7.76904Z" fill="white"/>
<path fill-rule="evenodd" clip-rule="evenodd" d="M14.769 22.9341C14.3548 22.9341 14.019 22.5983 14.019 22.1841L14.019 2.18408C14.019 1.76987 14.3548 1.43408 14.769 1.43408C15.1833 1.43408 15.519 1.76987 15.519 2.18408L15.519 22.1841C15.519 22.5983 15.1833 22.9341 14.769 22.9341Z" fill="white"/>
<path fill-rule="evenodd" clip-rule="evenodd" d="M23.519 14.1841C23.519 14.5983 23.1833 14.9341 22.769 14.9341L14.769 14.9341C14.3548 14.9341 14.019 14.5983 14.019 14.1841C14.019 13.7699 14.3548 13.4341 14.769 13.4341L22.769 13.4341C23.1833 13.4341 23.519 13.7699 23.519 14.1841Z" fill="white"/>
</svg>
